<?xml version="1.0" standalone="yes"?>

<svg version="1.1" viewBox="0.0 0.0 373.0 373.0" fill="none" stroke="none" stroke-linecap="square" stroke-miterlimit="10" xmlns="http://www.w3.org/2000/svg" xmlns:xlink="http://www.w3.org/1999/xlink"><clipPath id="p.0"><path d="m0 0l373.0 0l0 373.0l-373.0 0l0 -373.0z" clip-rule="nonzero"></path></clipPath><g clip-path="url(#p.0)"><path fill="#000000" fill-opacity="0.0" d="m0 0l373.40158 0l0 373.40158l-373.40158 0z" fill-rule="nonzero"></path><path fill="#000000" d="m372.66107 0.816621l0 62.80315l-62.80316 0l0 -62.80315z" fill-rule="nonzero"></path><path fill="#000000" d="m63.542953 309.7825l0 62.80316l-62.803146 0l0 -62.80316z" fill-rule="nonzero"></path><path fill="#000000" d="m248.33954 125.06203l0 123.27559l-123.27559 0l0 -123.27559z" fill-rule="nonzero"></path><path fill="#000000" d="m372.66107 125.06465l0 123.27559l-62.80316 0l0 -123.27559z" fill-rule="nonzero"></path><path fill="#000000" d="m63.542953 125.06334l0 123.27559l-62.803146 0l0 -123.27559z" fill-rule="nonzero"></path><path fill="#000000" d="m248.33954 372.58566l-123.27559 0l0 -62.80316l123.27559 0z" fill-rule="nonzero"></path><path fill="#000000" d="m248.33823 63.61977l-123.27559 0l0 -62.803146l123.27559 0z" fill-rule="nonzero"></path><path fill="#000000" d="m248.28311 372.58496l-31.338577 -31.338593l124.377945 -124.377945l31.338593 31.338577z" fill-rule="nonzero"></path><path fill="#000000" d="m125.11776 0.8159237l31.338585 31.338583l-124.37796 124.377945l-31.338583 -31.338577z" fill-rule="nonzero"></path></g></svg>

